<svg xmlns="http://www.w3.org/2000/svg" viewBox="0 0 40 40" fill="none">
  <defs>
    <linearGradient id="logo-bg" x1="0" y1="0" x2="40" y2="40" gradientUnits="userSpaceOnUse">
      <stop offset="0" stop-color="#3987e5" />
      <stop offset="1" stop-color="#1c5cab" />
    </linearGradient>
  </defs>

  <rect width="40" height="40" rx="10" fill="url(#logo-bg)" />

  <!-- Gift box: the reward being redeemed -->
  <rect
    x="9.5"
    y="17.5"
    width="21"
    height="13"
    rx="1.5"
    stroke="#ffffff"
    stroke-width="2.4"
    stroke-linejoin="round"
  />

  <!-- Lid -->
  <path
    d="M8 14.5c0-1.1.9-2 2-2h20c1.1 0 2 .9 2 2v2c0 .55-.45 1-1 1H9c-.55 0-1-.45-1-1v-2Z"
    stroke="#ffffff"
    stroke-width="2.4"
    stroke-linejoin="round"
  />

  <!-- Ribbon -->
  <path
    d="M20 12.5v18M13.5 30.5v-18M26.5 30.5v-18"
    stroke="#ffffff"
    stroke-width="2.4"
    stroke-linecap="round"
  />

  <!-- Bow -->
  <path
    d="M20 12.5c-1.2-2.6-3.4-4.2-5.2-3.6-1.7.6-2 2.8-.6 4.2 1 1 2.9 1.1 5.8-.6Z"
    fill="#ffffff"
  />
  <path
    d="M20 12.5c1.2-2.6 3.4-4.2 5.2-3.6 1.7.6 2 2.8.6 4.2-1 1-2.9 1.1-5.8-.6Z"
    fill="#ffffff"
  />
</svg>
